<svg width="329" height="329" viewBox="0 0 329 329" fill="none" xmlns="http://www.w3.org/2000/svg">
<path d="M104.767 22.4575H224.064H224.54C226.253 22.4575 227.641 21.0693 227.641 19.3567V15.1008C227.641 13.3882 226.253 12 224.54 12H224.064H104.767H104.291C102.579 12 101.191 13.3882 101.191 15.1008V19.3567C101.191 21.0693 102.579 22.4575 104.291 22.4575H104.767Z" fill="#AEB4B7"/>
<path d="M88.5608 31.7339V302.431H55.1008C53.3882 302.431 52 303.82 52 305.532V313.899C52 315.611 53.3882 317 55.1008 317H274.495C276.207 317 277.596 315.611 277.596 313.899V305.532C277.596 303.82 276.207 302.431 274.495 302.431H240.725V31.7339C240.725 30.0213 239.337 28.6331 237.624 28.6331H91.6616C89.949 28.6331 88.5608 30.0213 88.5608 31.7339ZM211.132 40.774C211.132 39.0614 212.52 37.6732 214.233 37.6732H227.737C229.449 37.6732 230.838 39.0614 230.838 40.774V54.2777C230.838 55.9903 229.449 57.3785 227.737 57.3785H214.233C212.52 57.3785 211.132 55.9903 211.132 54.2777V40.774ZM211.132 67.8689C211.132 66.1563 212.52 64.7681 214.233 64.7681H227.737C229.449 64.7681 230.838 66.1563 230.838 67.8689V81.3726C230.838 83.0849 229.449 84.4734 227.737 84.4734H214.233C212.52 84.4734 211.132 83.0849 211.132 81.3726V67.8689ZM211.132 94.9635C211.132 93.2512 212.52 91.8627 214.233 91.8627H227.737C229.449 91.8627 230.838 93.2512 230.838 94.9635V108.467C230.838 110.18 229.449 111.568 227.737 111.568H214.233C212.52 111.568 211.132 110.18 211.132 108.467V94.9635ZM211.132 122.058C211.132 120.346 212.52 118.958 214.233 118.958H227.737C229.449 118.958 230.838 120.346 230.838 122.058V135.562C230.838 137.274 229.449 138.663 227.737 138.663H214.233C212.52 138.663 211.132 137.274 211.132 135.562V122.058ZM211.132 149.153C211.132 147.44 212.52 146.052 214.233 146.052H227.737C229.449 146.052 230.838 147.44 230.838 149.153V162.657C230.838 164.369 229.449 165.758 227.737 165.758H214.233C212.52 165.758 211.132 164.369 211.132 162.657V149.153ZM211.132 176.248C211.132 174.535 212.52 173.147 214.233 173.147H227.737C229.449 173.147 230.838 174.535 230.838 176.248V189.752C230.838 191.464 229.449 192.852 227.737 192.852H214.233C212.52 192.852 211.132 191.464 211.132 189.752V176.248ZM211.132 203.343C211.132 201.63 212.52 200.242 214.233 200.242H227.737C229.449 200.242 230.838 201.63 230.838 203.343V216.847C230.838 218.559 229.449 219.947 227.737 219.947H214.233C212.52 219.947 211.132 218.559 211.132 216.847V203.343ZM211.132 230.437C211.132 228.725 212.52 227.337 214.233 227.337H227.737C229.449 227.337 230.838 228.725 230.838 230.437V243.941C230.838 245.653 229.449 247.042 227.737 247.042H214.233C212.52 247.042 211.132 245.653 211.132 243.941V230.437ZM211.132 257.532C211.132 255.82 212.52 254.431 214.233 254.431H227.737C229.449 254.431 230.838 255.82 230.838 257.532V271.036C230.838 272.749 229.449 274.137 227.737 274.137H214.233C212.52 274.137 211.132 272.749 211.132 271.036V257.532ZM211.132 284.627C211.132 282.915 212.52 281.526 214.233 281.526H227.737C229.449 281.526 230.838 282.915 230.838 284.627V298.131C230.838 299.843 229.449 301.232 227.737 301.232H214.233C212.52 301.232 211.132 299.843 211.132 298.131V284.627ZM182.962 40.774C182.962 39.0614 184.35 37.6732 186.062 37.6732H199.566C201.279 37.6732 202.667 39.0614 202.667 40.774V54.2777C202.667 55.9903 201.279 57.3785 199.566 57.3785H186.062C184.35 57.3785 182.962 55.9903 182.962 54.2777V40.774ZM182.962 67.8689C182.962 66.1563 184.35 64.7681 186.062 64.7681H199.566C201.279 64.7681 202.667 66.1563 202.667 67.8689V81.3726C202.667 83.0849 201.279 84.4734 199.566 84.4734H186.062C184.35 84.4734 182.962 83.0849 182.962 81.3726V67.8689ZM182.962 94.9635C182.962 93.2512 184.35 91.8627 186.062 91.8627H199.566C201.279 91.8627 202.667 93.2512 202.667 94.9635V108.467C202.667 110.18 201.279 111.568 199.566 111.568H186.062C184.35 111.568 182.962 110.18 182.962 108.467V94.9635ZM182.962 122.058C182.962 120.346 184.35 118.958 186.062 118.958H199.566C201.279 118.958 202.667 120.346 202.667 122.058V135.562C202.667 137.274 201.279 138.663 199.566 138.663H186.062C184.35 138.663 182.962 137.274 182.962 135.562V122.058ZM182.962 149.153C182.962 147.44 184.35 146.052 186.062 146.052H199.566C201.279 146.052 202.667 147.44 202.667 149.153V162.657C202.667 164.369 201.279 165.758 199.566 165.758H186.062C184.35 165.758 182.962 164.369 182.962 162.657V149.153ZM182.962 176.248C182.962 174.535 184.35 173.147 186.062 173.147H199.566C201.279 173.147 202.667 174.535 202.667 176.248V189.752C202.667 191.464 201.279 192.852 199.566 192.852H186.062C184.35 192.852 182.962 191.464 182.962 189.752V176.248ZM182.962 203.343C182.962 201.63 184.35 200.242 186.062 200.242H199.566C201.279 200.242 202.667 201.63 202.667 203.343V216.847C202.667 218.559 201.279 219.947 199.566 219.947H186.062C184.35 219.947 182.962 218.559 182.962 216.847V203.343ZM182.962 230.437C182.962 228.725 184.35 227.337 186.062 227.337H199.566C201.279 227.337 202.667 228.725 202.667 230.437V243.941C202.667 245.653 201.279 247.042 199.566 247.042H186.062C184.35 247.042 182.962 245.653 182.962 243.941V230.437ZM182.962 257.532C182.962 255.82 184.35 254.431 186.062 254.431H199.566C201.279 254.431 202.667 255.82 202.667 257.532V271.036C202.667 272.749 201.279 274.137 199.566 274.137H186.062C184.35 274.137 182.962 272.749 182.962 271.036V257.532ZM154.79 40.774C154.79 39.0614 156.179 37.6732 157.891 37.6732H171.395C173.107 37.6732 174.496 39.0614 174.496 40.774V54.2777C174.496 55.9903 173.107 57.3785 171.395 57.3785H157.891C156.179 57.3785 154.79 55.9903 154.79 54.2777V40.774ZM154.79 67.8689C154.79 66.1563 156.179 64.7681 157.891 64.7681H171.395C173.107 64.7681 174.496 66.1563 174.496 67.8689V81.3726C174.496 83.0849 173.107 84.4734 171.395 84.4734H157.891C156.179 84.4734 154.79 83.0849 154.79 81.3726V67.8689ZM154.79 94.9635C154.79 93.2512 156.179 91.8627 157.891 91.8627H171.395C173.107 91.8627 174.496 93.2512 174.496 94.9635V108.467C174.496 110.18 173.107 111.568 171.395 111.568H157.891C156.179 111.568 154.79 110.18 154.79 108.467V94.9635ZM154.79 122.058C154.79 120.346 156.179 118.958 157.891 118.958H171.395C173.107 118.958 174.496 120.346 174.496 122.058V135.562C174.496 137.274 173.107 138.663 171.395 138.663H157.891C156.179 138.663 154.79 137.274 154.79 135.562V122.058ZM154.79 149.153C154.79 147.44 156.179 146.052 157.891 146.052H171.395C173.107 146.052 174.496 147.44 174.496 149.153V162.657C174.496 164.369 173.107 165.758 171.395 165.758H157.891C156.179 165.758 154.79 164.369 154.79 162.657V149.153ZM154.79 176.248C154.79 174.535 156.179 173.147 157.891 173.147H171.395C173.107 173.147 174.496 174.535 174.496 176.248V189.752C174.496 191.464 173.107 192.852 171.395 192.852H157.891C156.179 192.852 154.79 191.464 154.79 189.752V176.248ZM154.79 203.343C154.79 201.63 156.179 200.242 157.891 200.242H171.395C173.107 200.242 174.496 201.63 174.496 203.343V216.847C174.496 218.559 173.107 219.947 171.395 219.947H157.891C156.179 219.947 154.79 218.559 154.79 216.847V203.343ZM154.79 230.437C154.79 228.725 156.179 227.337 157.891 227.337H171.395C173.107 227.337 174.496 228.725 174.496 230.437V243.941C174.496 245.653 173.107 247.042 171.395 247.042H157.891C156.179 247.042 154.79 245.653 154.79 243.941V230.437ZM154.79 257.532C154.79 255.82 156.179 254.431 157.891 254.431H171.395C173.107 254.431 174.496 255.82 174.496 257.532V271.036C174.496 272.749 173.107 274.137 171.395 274.137H157.891C156.179 274.137 154.79 272.749 154.79 271.036V257.532ZM126.619 40.774C126.619 39.0614 128.007 37.6732 129.72 37.6732H143.224C144.936 37.6732 146.325 39.0614 146.325 40.774V54.2777C146.325 55.9903 144.936 57.3785 143.224 57.3785H129.72C128.007 57.3785 126.619 55.9903 126.619 54.2777V40.774ZM126.619 67.8689C126.619 66.1563 128.007 64.7681 129.72 64.7681H143.224C144.936 64.7681 146.325 66.1563 146.325 67.8689V81.3726C146.325 83.0849 144.936 84.4734 143.224 84.4734H129.72C128.007 84.4734 126.619 83.0849 126.619 81.3726V67.8689ZM126.619 94.9635C126.619 93.2512 128.007 91.8627 129.72 91.8627H143.224C144.936 91.8627 146.325 93.2512 146.325 94.9635V108.467C146.325 110.18 144.936 111.568 143.224 111.568H129.72C128.007 111.568 126.619 110.18 126.619 108.467V94.9635ZM126.619 122.058C126.619 120.346 128.007 118.958 129.72 118.958H143.224C144.936 118.958 146.325 120.346 146.325 122.058V135.562C146.325 137.274 144.936 138.663 143.224 138.663H129.72C128.007 138.663 126.619 137.274 126.619 135.562V122.058ZM126.619 149.153C126.619 147.44 128.007 146.052 129.72 146.052H143.224C144.936 146.052 146.325 147.44 146.325 149.153V162.657C146.325 164.369 144.936 165.758 143.224 165.758H129.72C128.007 165.758 126.619 164.369 126.619 162.657V149.153ZM126.619 176.248C126.619 174.535 128.007 173.147 129.72 173.147H143.224C144.936 173.147 146.325 174.535 146.325 176.248V189.752C146.325 191.464 144.936 192.852 143.224 192.852H129.72C128.007 192.852 126.619 191.464 126.619 189.752V176.248ZM126.619 203.343C126.619 201.63 128.007 200.242 129.72 200.242H143.224C144.936 200.242 146.325 201.63 146.325 203.343V216.847C146.325 218.559 144.936 219.947 143.224 219.947H129.72C128.007 219.947 126.619 218.559 126.619 216.847V203.343ZM126.619 230.437C126.619 228.725 128.007 227.337 129.72 227.337H143.224C144.936 227.337 146.325 228.725 146.325 230.437V243.941C146.325 245.653 144.936 247.042 143.224 247.042H129.72C128.007 247.042 126.619 245.653 126.619 243.941V230.437ZM126.619 257.532C126.619 255.82 128.007 254.431 129.72 254.431H143.224C144.936 254.431 146.325 255.82 146.325 257.532V271.036C146.325 272.749 144.936 274.137 143.224 274.137H129.72C128.007 274.137 126.619 272.749 126.619 271.036V257.532ZM126.619 284.627C126.619 282.915 128.007 281.526 129.72 281.526H143.398H146.325H182.962H185.888H199.566C201.279 281.526 202.667 282.915 202.667 284.627V298.131C202.667 299.843 201.279 301.232 199.566 301.232H185.888H182.961H146.325H143.398H129.72C128.007 301.232 126.619 299.843 126.619 298.131V284.627ZM98.4483 40.774C98.4483 39.0614 99.8366 37.6732 101.549 37.6732H115.053C116.765 37.6732 118.154 39.0614 118.154 40.774V54.2777C118.154 55.9903 116.765 57.3785 115.053 57.3785H101.549C99.8366 57.3785 98.4483 55.9903 98.4483 54.2777V40.774ZM98.4483 67.8689C98.4483 66.1563 99.8366 64.7681 101.549 64.7681H115.053C116.765 64.7681 118.154 66.1563 118.154 67.8689V81.3726C118.154 83.0849 116.765 84.4734 115.053 84.4734H101.549C99.8366 84.4734 98.4483 83.0849 98.4483 81.3726V67.8689ZM98.4483 94.9635C98.4483 93.2512 99.8366 91.8627 101.549 91.8627H115.053C116.765 91.8627 118.154 93.2512 118.154 94.9635V108.467C118.154 110.18 116.765 111.568 115.053 111.568H101.549C99.8366 111.568 98.4483 110.18 98.4483 108.467V94.9635ZM98.4483 122.058C98.4483 120.346 99.8366 118.958 101.549 118.958H115.053C116.765 118.958 118.154 120.346 118.154 122.058V135.562C118.154 137.274 116.765 138.663 115.053 138.663H101.549C99.8366 138.663 98.4483 137.274 98.4483 135.562V122.058ZM98.4483 149.153C98.4483 147.44 99.8366 146.052 101.549 146.052H115.053C116.765 146.052 118.154 147.44 118.154 149.153V162.657C118.154 164.369 116.765 165.758 115.053 165.758H101.549C99.8366 165.758 98.4483 164.369 98.4483 162.657V149.153ZM98.4483 176.248C98.4483 174.535 99.8366 173.147 101.549 173.147H115.053C116.765 173.147 118.154 174.535 118.154 176.248V189.752C118.154 191.464 116.765 192.852 115.053 192.852H101.549C99.8366 192.852 98.4483 191.464 98.4483 189.752V176.248ZM98.4483 203.343C98.4483 201.63 99.8366 200.242 101.549 200.242H115.053C116.765 200.242 118.154 201.63 118.154 203.343V216.847C118.154 218.559 116.765 219.947 115.053 219.947H101.549C99.8366 219.947 98.4483 218.559 98.4483 216.847V203.343ZM98.4483 230.437C98.4483 228.725 99.8366 227.337 101.549 227.337H115.053C116.765 227.337 118.154 228.725 118.154 230.437V243.941C118.154 245.653 116.765 247.042 115.053 247.042H101.549C99.8366 247.042 98.4483 245.653 98.4483 243.941V230.437ZM98.4483 257.532C98.4483 255.82 99.8366 254.431 101.549 254.431H115.053C116.765 254.431 118.154 255.82 118.154 257.532V271.036C118.154 272.749 116.765 274.137 115.053 274.137H101.549C99.8366 274.137 98.4483 272.749 98.4483 271.036V257.532ZM98.4483 284.627C98.4483 282.915 99.8366 281.526 101.549 281.526H115.053C116.765 281.526 118.154 282.915 118.154 284.627V298.131C118.154 299.843 116.765 301.232 115.053 301.232H101.549C99.8366 301.232 98.4483 299.843 98.4483 298.131V284.627Z" fill="#AEB4B7"/>
</svg>
