<svg width="750" height="750" viewBox="0 0 750 750" fill="none" xmlns="http://www.w3.org/2000/svg">
<path d="M375 0C167.9 0 0 167.9 0 375C0 582.1 167.9 750 375 750C582.1 750 750 582.1 750 375C750 167.9 582.1 0 375 0ZM543.55 556.35H493.337L485.725 511.075C471.125 528.225 457.988 540.313 446.35 547.325C426.338 559.563 401.738 565.7 372.538 565.7C324.475 565.7 285.1 549.05 254.438 515.787C222.438 482.337 206.45 436.6 206.45 378.562C206.45 319.875 222.6 272.825 254.925 237.413C287.237 202 329.975 184.3 383.125 184.3C429.225 184.3 466.25 195.988 494.225 219.363C522.2 242.738 538.238 271.9 542.338 306.838H467.775C462.038 282.075 448 264.762 425.712 254.925C413.237 249.5 399.375 246.813 384.112 246.813C354.912 246.813 330.925 257.825 312.138 279.85C293.363 301.875 283.962 334.975 283.962 379.175C283.962 423.712 294.138 455.237 314.475 473.737C334.813 492.225 357.95 501.487 383.862 501.487C409.3 501.487 430.125 494.188 446.362 479.6C462.612 465.013 472.613 445.9 476.388 422.25H392.475V361.712H543.562L543.55 556.35Z" fill="#1BA8F0"/>
</svg>
