<?xml version='1.0' encoding='utf-8'?>
<svg xmlns="http://www.w3.org/2000/svg" width="1552px" height="1108px" version="1.1" viewBox="-236 505 1552 1108"> <g fill="#76bcf5"> <path d="m-236 504.26c-0.1973 0-0.38651 0.0784-0.52602 0.2179s-0.21788 0.3287-0.21788 0.526l1e-3 1108c0 0.4109 0.33306 0.7439 0.7439 0.7439l1552 1e-3c0.1972 0 0.3865-0.0784 0.526-0.2179s0.2179-0.3288 0.2179-0.526l-1e-3 -1108c0-0.41083-0.333-0.7439-0.7439-0.7439l-1552-1e-3z"/> </g> <g> <g> <path d="m982.56 1479.4-4.0794 0.7023q-29.002 2.1241-169.72 3.3971-141.69 1.2726-333.71 1.0318-183.26-0.3356-293.13-1.9661-35.205-0.5275-57.996-1.1492l-19.156-0.6392q-15.786-0.6596-15.963-1.3763 4.7923-2.201 130.89-3.6622 126.1-1.4606 315.99-1.5164 189.89 0.0559 315.99 1.5161 126.09 1.4613 130.89 3.6621"/> </g> <g fill="#58311c"> <path d="m528.21 673.91q-4.1984 0.43484-6.5202 2.27-2.1214 1.55-3.6734 5.6556l17.577 18.123 8.0974-0.72901q3.0297-2.9183 3.1056-8.1282-0.0182-6.1813-2.7747-10.836-4.2686-7.0871-15.776-6.3589"/> </g> <g fill="#fff"> <path d="m520.13 711.51-3.8386 17.401-1.4701 72.121 34.52-5.1037-7.4099-84.13-21.793-0.28833"/> </g> <g> <path d="m502.81 791.04q-2.3989 38.107-2.251 44.721l0.83288 27.134q0.17103 5.2812 1.1216 69.686 0.22313 11.995 0.49108 14.195l0.05469 0.23915 16.519 2.8364 10.95-118.64 13.172 109.91 14.762-1.8097q-0.6791-45.373 0.3547-77.311 0.6171-23.898 4.5256-74.873l-60.505 3.9155"/> <path d="m467.11 713.96-17.347 8.5461q5.5348 18.938 8.9045 26.533 3.844 8.9177 7.6895 11.932 3.8994 3.0954 9.2388 1.6494 4.4369-0.96875 14.276-7.7849l-2.1109 70.876 29.692 4.3275 2.646-81.441-0.0117-36.351-3.8683 3.0358-22.202 4.688q-4.8678 8.1244-8.0986 11.334-3.1251 3.3748-10.685 8.1852l-8.1065-25.479"/> <path d="m542.02 713.38-5.1478 118.03 21.426-2.4523 19.433 1.193q-2.5852-51.13-4.4478-68.801-1.7644-18.63-6.0575-36.014l-25.124-11.913"/> </g> <g fill="#7e8ea7"> <path d="m529.19 721.83-5.7986 1.7212 2.3394 5.5466 0.0012 0.1099-3.1796 56.824 5.78 5.0922 5.9684-6.0929-4.5839-55.071 4.149-4.456-4.6698-3.6693"/> </g> <g fill="#ffbd9a"> <path d="m521.28 677.49q-1.5521 0.1259-2.9429 2.5856-1.985 3.6261-2.544 6.9552-0.15259 1.0478-0.10985 1.9934 0.42577 4.0377 0.33995 4.2169 0.03775 0.4174-0.33471 4.0684-0.0503 0.7596-0.03089 1.3131 0.01955 0.6808 0.15355 1.4995 0.78896 3.6215 0.7168 3.8104 0.10304 0.44876-0.10704 4.0187 0.00268 0.9789 0.10559 1.5898 0.26515 1.528 0.94958 1.8812 0.69361 0.46323 2.5669 0.26255l0.0745 4.7082 8.1144 5.9598 13.301-7.9259-0.78305-9.0765q2.5523-4.0548 3.2733-6.0066 0.85643-2.1418 0.57506-3.8638-0.66846-2.994-2.6192-2.9652-1.2806-0.047-4.2347 3.7719-0.302-8.8376-1.0604-12.343-0.79015-3.9603-2.4774-5.1714-1.0515-0.80859-2.6503-0.9635-0.64661-0.06799-1.5269-0.02991-4.0246 0.39563-4.3039 0.29507-1.0081 0.00925-3.6414-0.5575l-0.7566-0.0308"/> <path d="m564.65 835.69q0.4883 0.07178 0.4757 1.86-0.06824 1.567-0.62476 2.6901-0.70814 1.5995-3.0902 1.858 0.43057-0.56568 0.90271-1.5851l1.7273-4.0516q0.39146-0.77257 0.60866-0.77135m-4.3292-6.9246q0.12534 3.5384-0.06482 5.1911-0.0979 0.97254-0.29124 1.8137-0.0497 0.31739-0.7769 2.8326l-0.2148 0.9879q-0.18044 1.0732 0.0763 1.8692 0.29966 0.93005 0.9459 1.2157 0.2466 0.08911 0.4531 0.05435 1.1123 0.4316 2.373 0.6993 1.0952 0.2333 2.1536 0.29945 4.5568 0.41685 7.5844-3.38 1.8858-2.3316 2.9096-5.311 0.901-2.6792 0.36124-4.4751-0.21934-0.6583-0.41404-0.87486l-15.077-0.92054"/> <path d="m458.11 694.49q-2.6065 0.3059-3.3403 1.9086-0.25033 0.5615-0.32593 1.3532l-0.0852 3.3912q-0.0624 0.92406-0.24225 1.5741-0.20285 0.7418-0.59015 1.5311-1.8846 3.4077-1.8617 3.5481-0.44537 1.085-0.44412 1.9164-0.02567 1.2832 0.91553 2.9189 0.8598 1.5702 3.721 4.7086l2.0106 3.9606 9.7686-4.4815q0.21742-3.9612 0.23087-6.0019 0.0708-16.983-9.7312-16.33"/> </g> <g fill="#f00" fill-opacity=".094118"> <path d="m531.87 709.79q-3.5798 1.332-5.317 1.6527-1.6712 0.3627-4.8349 0.36634l-1.6401 4.5108 8.1227 6.1011 6.2627-3.7826-2.5889-8.8316"/> </g> <g> <path d="m543.67 937.15-0.03075 11.375q3.5181 1.3785 4.2573 2.2894 0.35976 0.3904 0.4641 0.83374 0.06534-0.01208 0.1768 1.8555 0.0731 0.46656 0.28453 0.8833 0.42027 0.86964 1.9026 1.8534 2.2027 1.439 5.4341 2.599 2.2626 0.81165 3.945 0.6614 2.5753-0.2942 4.4108-1.864 1.5609-1.4281 1.2206-3.2025-0.16846-1.2978-1.5383-4.0164-1.3655-2.7338-7.5836-14.288l-12.902 1.0176"/> <path d="m504.51 944.52-0.02515 0.0504q-3.8514 7.896-5.7424 10.559-0.82696 1.2134-1.7793 2.2284-0.25775 0.34157-3.1862 3.03-0.68947 0.67981-1.2782 1.3934-1.5055 1.8403-2.6712 4.1637-2.8288 5.7602 0.94337 6.3231 1.977 0.4558 6.9888-0.3075 4.6534-0.7339 7.6746-1.9741 2.7295-1.1023 3.9309-2.7207 0.62451-0.8103 1.0018-1.8081 0.3178-0.7554 0.63006-2.5878 0.06934-0.2534 0.13624-0.29834 0.106-0.08423 0.24566-0.02331 0.97094 0.51535 1.3672 0.60975 0.40025 0.1266 0.96555 0.1859 1.3044 0.1167 2.8152-0.27783 2.9929-0.85007 4.1034-3.0602 1.692-3.3456-1.5209-12.361l-14.562-3.1168"/> </g> <g fill="#3c464f"> <path d="m473.99 687.43-72.372-0.3979 72.372 0.3979"/> <path d="m482.83 687.91-34.868 9.7e-4 -34.869 6.3e-4q-2.2e-4 5.1833 0 10.366 34.869 7.4e-4 69.737 7.4e-4 0-5.1839 0-10.369"/> <path d="m518.91 690.26-10.505 3.5e-4h-10.505q0 2.6896 2.4e-4 5.379 10.505 5e-4 21.01 0.0012 0-2.6906 0-5.3806"/> <path d="m505.37 689.5-12.235 5e-4 -12.235 1e-4q0 3.7147 0 7.4287 12.235 3.7e-4 24.469 8.7e-4 -2.5e-4 -3.715-2.5e-4 -7.4302"/> </g> <g fill="#371232"> <path d="m650.82 1050.9c28.827 1e-3 51.96-24.856 49.089-54.262-2.5008-25.626-25.54-44.401-51.288-44.401l-350.74 2.4e-4c-5.1187-3.4e-4 -9.2679-4.1499-9.2679-9.2677v8.6e-4c0-5.1198 4.1492-9.2683 9.2679-9.2683l350.09 0.0013c37.163-6e-4 69.568 28.637 70.683 65.782 1.1532 38.436-29.662 69.957-67.837 69.956l-352.94 0.0015c-5.1188-0.0016-9.2681-4.1509-9.2681-9.2701v-0.0056c0-5.1175 4.1493-9.2668 9.2681-9.2668l352.94 0.0014z"/> </g> <g fill="#ebf0f3"> <path d="m699.91 996.67c2.8715 29.404-20.263 54.262-49.089 54.262l-351.18 1e-4c15.306-32.888 15.306-65.775 0-98.663l348.98 0.00156c25.75 0 48.788 18.773 51.289 44.4z"/> </g> <g fill="#e1e6e9"> <path d="m669.63 974.78-362 0.0012c-0.33005-1.3063-0.76044-2.6092-1.1374-3.911l363.14 0.0017v3.9081z"/> <path d="m669.63 989.16-359.24-6.1e-4c-0.15509-1.3043-0.4831-2.6087-0.68366-3.9106l359.92 0.0021v3.9092z"/> <path d="m669.63 1003.6-358.62 9e-4c0.02523-1.3063 0.02523-2.6096 0-3.9116l358.62 0.00145v3.9093z"/> <path d="m669.63 1018-359.92-9e-4c0.20038-1.3042 0.52857-2.6089 0.68366-3.9105l359.24 0.00243v3.909z"/> <path d="m669.63 1032.3-363.14-1e-3c0.37811-1.3054 0.80767-2.6084 1.1376-3.9097l362 0.0022v3.9085z"/> </g> <g fill="#884636"> <path d="m341.64 1187.5c-28.827 9e-4 -51.96-24.856-49.089-54.262 2.5007-25.626 25.54-44.4 51.288-44.4l350.74 0.0014c5.1186-2e-3 9.268-4.1515 9.268-9.2693v1e-3c0-5.1197-4.1494-9.2685-9.268-9.2685l-350.09 0.0012c-37.163 0-69.568 28.638-70.683 65.782-1.1531 38.437 29.663 69.958 67.837 69.958l352.94-0.0017c5.1191 0 9.2679-4.1487 9.2679-9.2679v-0.0061c0-5.1173-4.1489-9.2665-9.268-9.2665l-352.94 0.0018z"/> </g> <g fill="#ebf0f3"> <path d="m292.55 1133.3c-2.8716 29.405 20.262 54.262 49.089 54.262l351.18 0.0013c-15.306-32.89-15.306-65.776 0-98.664l-348.98 0.0012c-25.75 0-48.788 18.772-51.288 44.4z"/> </g> <g fill="#e1e6e9"> <path d="m322.83 1111.4 362-3e-4c0.33005-1.3051 0.76035-2.6078 1.1376-3.9099l-363.14 2e-3v3.9082z"/> <path d="m322.83 1125.8 359.24-4e-4c0.155-1.3051 0.4828-2.6091 0.68346-3.9113l-359.92 0.0022v3.9095z"/> <path d="m322.83 1140.2 358.62 0.0017c-0.02539-1.3063-0.02539-2.61 0-3.9121l-358.62 0.0018v3.9086z"/> <path d="m322.83 1154.6 359.92-3e-4c-0.20019-1.3046-0.52846-2.6093-0.68346-3.9107l-359.24 0.0022v3.9088z"/> <path d="m322.83 1168.9 363.14-3e-4c-0.37817-1.3053-0.80737-2.6092-1.1377-3.9104l-362 0.0021v3.9086z"/> </g> <g fill="#535d66"> <path d="m345.64 1321.9c-28.827 6e-4 -51.96-24.856-49.089-54.262 2.5008-25.626 25.54-44.401 51.288-44.401l350.74 3e-4c5.1188-4e-4 9.2682-4.15 9.2682-9.268v7e-4c0-5.1195-4.1494-9.2682-9.2682-9.2682l-350.1 0.0015c-37.163 0-69.568 28.637-70.683 65.783-1.1532 38.436 29.663 69.957 67.837 69.956l352.94-1e-3c5.119 0 9.2682-4.1486 9.2682-9.2682v-6e-3c0-5.1178-4.1492-9.2664-9.2682-9.2664l-352.94 0.0018z"/> </g> <g fill="#ebf0f3"> <path d="m296.55 1267.7c-2.8718 29.405 20.262 54.262 49.089 54.262l351.18 3e-4c-15.306-32.889-15.306-65.775 0-98.663l-348.98 0.0015c-25.75 0-48.788 18.773-51.289 44.4z"/> </g> <g fill="#e1e6e9"> <path d="m326.83 1245.8 362-7e-4c0.32984-1.3048 0.76024-2.6077 1.1371-3.9093l-363.14 0.0017v3.9083z"/> <path d="m326.83 1260.2 359.24-5e-4c0.15479-1.3048 0.48315-2.6093 0.68345-3.911l-359.92 0.0025v3.909z"/> <path d="m326.83 1274.6 358.62 1e-3c-0.0255-1.3054-0.0255-2.6095 0-3.9109l-358.62 0.0015v3.9084z"/> <path d="m326.83 1288.9 359.92-3e-4c-0.2003-1.305-0.52866-2.61-0.68345-3.9111l-359.24 0.0025v3.9089z"/> <path d="m326.83 1303.3 363.14-1e-3c-0.37829-1.3051-0.80761-2.6088-1.1377-3.91l-362 0.0028-4e-5 3.9082z"/> </g> <g fill="#201a41"> <path d="m658.16 1457.9c28.826 7e-4 51.96-24.857 49.089-54.262-2.5008-25.625-25.54-44.4-51.288-44.4l-350.74 3e-4c-5.1187-4e-4 -9.2681-4.1491-9.2681-9.2679v0.0012c0-5.1196 4.1494-9.269 9.2681-9.269l350.1 0.0016c37.163 0 69.568 28.637 70.683 65.782 1.1531 38.436-29.662 69.957-67.837 69.956l-352.94 3e-4c-5.1188 0-9.2681-4.1498-9.2681-9.2682v-0.0059c0-5.1177 4.1493-9.2667 9.2681-9.2667l352.94 6e-4z"/> </g> <g fill="#ebf0f3"> <path d="m707.25 1403.6c2.8718 29.404-20.263 54.262-49.089 54.261l-351.18 0.0011c15.306-32.888 15.306-65.775 0-98.664l348.98 0.0012c25.75 0 48.788 18.773 51.289 44.4z"/> </g> <g fill="#e1e6e9"> <path d="m676.97 1381.7-362 4e-4c-0.33003-1.3056-0.76043-2.6086-1.1374-3.9106l363.14 0.0023v3.9079z"/> <path d="m676.97 1396.1-359.24 9e-4c-0.15497-1.3058-0.48304-2.6097-0.68351-3.9117l359.92 0.0019v3.9089z"/> <path d="m676.97 1410.5-358.62 9e-4c0.02545-1.3056 0.02545-2.6086 0-3.9107l358.62 0.0016v3.9082z"/> <path d="m676.97 1424.9-359.92-0.0012c0.20035-1.304 0.52854-2.609 0.68351-3.9101l359.24 0.0019v3.9094z"/> <path d="m676.97 1439.3-363.14 1e-3c0.37829-1.3067 0.80761-2.61 1.1377-3.9118l362 0.0021v3.9087z"/> </g> <g> <path d="m654.3 978.38 0.6217 8.2892h66.503l8.3699 0.00194v0.00136l-1.1619-8.2923-8.3702-2e-4h-65.962z"/> </g> <g fill="#70614e"> <path d="m654.3 978.38-8.3122 0.0013v0.0017l0.62156 8.2858 8.3123 3.6e-4 -0.6217-8.2892v0.0013z"/> <path d="m645.99 978.38v0.0013l2.4e-4 0.0017v-0.0017l-2.4e-4 -0.0013z"/> <path d="m645.99 978.38v0.0013-0.0013z"/> <path d="m728.15 1034.7v9e-4l4e-4 0.0012v9e-4 -9e-4 9e-4l-4e-4 -3e-3z"/> <path d="m736.52 1034.7-8.3697 0.0021v9e-4l1.1617 8.2859 8.3699 2e-3 -1.1619-8.2909z"/> <path d="m658.52 1034.7-8.3125 0.0018v0.0015l0.62158 8.2856 8.3124 0.0017-0.62145-8.2906z"/> </g> <g> <path d="m658.52 1034.7 0.62145 8.2889 70.17 3e-4 -1.1617-8.2869v9e-4l-4e-4 -9e-4v-0.0011-9e-4l-69.629-3e-4z"/> </g> <g fill="#70614e"> <path d="m650.21 1034.7v0.0018 0.0015-0.0015-0.0018z"/> <path d="m744.41 1090.9 3.5e-4 0.0014v0.0018-0.0018 0.0018l-3.5e-4 -0.0032z"/> <path d="m744.41 1090.9 0.5808 4.1448 0.58096 4.1432-1.1618-8.288z"/> </g> <g> <path d="m662.74 1090.9 0.62145 8.2892 73.837 6e-4 8.37 0.0015-1.1618-8.2895v0.0017l-3.5e-4 -0.0017v-0.0014l-8.37 0.0014v-0.0014l-73.296-4e-4z"/> </g> <g fill="#70614e"> <path d="m662.74 1090.9-8.3123 0.0015v0.0017l0.62157 8.2859 8.3122 0.0015-0.62145-8.2906z"/> <path d="m654.43 1090.9v0.0015 0.0017-0.0017-0.0015z"/> <path d="m752.3 1147.2 2.4e-4 0.0018v0.0015-0.0015 0.0015l-2.4e-4 -0.0033z"/> <path d="m752.31 1147.3 0.5634 4.0194 0.51597 3.6819-1.0794-7.7013z"/> </g> <g> <path d="m666.96 1147.2 0.62143 8.2892 77.503 2e-4 8.3704 0.0021-1.1618-8.2892v0.0015l-2.4e-4 -0.0015v-0.0017l-85.333-6e-4z"/> </g> <g fill="#70614e"> <path d="m658.65 1147.2 0.62185 8.2892 8.3122 0.0014-0.62143-8.2906h-8.3126z"/> <path d="m760.18 1203.5 1.5e-4 0.0015v0.0011-0.0011 0.0011l-1.5e-4 -0.0026z"/> <path d="m760.18 1203.5 0.58115 4.1446 0.4778 3.4085-1.059-7.5531z"/> </g> <g> <path d="m671.18 1203.5 0.6217 8.2888 81.17 4e-4 8.3701 0.0014-1.1618-8.2885v0.0011l-1.5e-4 -0.0011v-0.0015l-89-6e-4z"/> </g> <g fill="#70614e"> <path d="m662.87 1203.5 0.62173 8.2891 8.3126 0.0015-0.6217-8.2903-8.3126-3e-4z"/> <path d="m768.07 1259.7 1.4e-4 0.0014v0.0017-0.0017 0.0017l-1.4e-4 -0.0031z"/> <path d="m768.07 1259.7 0.5813 4.1442 0.43235 3.0867-1.0136-7.2309z"/> <path d="m759.7 1259.7 1.1616 8.2888 8.37 0.0017-1.1617-8.2888v0.0017l-1.4e-4 -0.0017v-0.0014l-8.3698-3e-4z"/> <path d="m667.09 1259.7 0.62145 8.2892 8.3126 0.0017-0.62183-8.2907-8.3122-2e-4z"/> </g> <g> <path d="m675.4 1259.7 0.62183 8.2888 84.837 4e-4 -1.1621-8.2889-84.296-3e-4z"/> </g> <g fill="#70614e"> <path d="m775.99 1316.3 0.54492 3.8871 0.38734 2.764-0.93226-6.6511z"/> </g> <g> <path d="m679.62 1316 0.62158 8.289 88.504 5e-4 8.3701 0.0014-1.1618-8.2888v0.0017l-2e-4 -0.0017v-0.0014l-8.3701 0.0014v-0.0014l-87.964-7e-4z"/> </g> <g fill="#70614e"> <path d="m671.31 1316 0.6217 8.2889 8.3122 0.0017-0.62158-8.2906h-8.3123z"/> <path d="m775.96 1316 2e-4 0.0014v0.0019-0.0019 0.0019l-2e-4 -0.0033z"/> <path d="m783.85 1372.3v0.0019-0.0019 0.0019-0.0019 0.0019z"/> </g> <g> <path d="m683.84 1372.3 0.0368 0.4873 0.58505 7.8019 92.17 3e-4 8.3701 0.0032-0.80056-5.7159-0.36108-2.5744h-1.2e-4l-8.3696 0.0011-91.631-0.0035z"/> </g> <g fill="#70614e"> <path d="m683.84 1372.3-8.3122 0.0016v0.0015l0.62143 8.2861 8.3126 0.0014-0.62185-8.2906z"/> <path d="m675.53 1372.3v0.0016l3e-4 0.0015v-0.0015l-3e-4 -0.0016z"/> <path d="m791.73 1428.6 1.3e-4 0.0019v0.0012-0.0012 0.0012l-1.3e-4 -0.0031z"/> </g> <g> <path d="m688.07 1428.6 0.6217 8.2892 95.837 6e-4 7.5884 0.0017c0.25955-0.0017 0.51365-0.0257 0.76001-0.0714l-1.1398-8.2181v0.0011l-1.3e-4 -0.0011v-0.0018l-8.3704 0.0018v-0.0018l-95.297-2e-4z"/> </g> <g fill="#70614e"> <path d="m688.07 1428.6-8.3124 0.0014v0.0015l0.6215 8.2863 8.3126 0.0014-0.6217-8.2906z"/> <path d="m791.73 1428.6 0.0201 0.1461 1.1316 8.0698-1.1517-8.2159z"/> <path d="m679.75 1428.6v0.0014l2e-4 0.0015v-0.0015l-2e-4 -0.0014z"/> </g> <g> <path d="m651.3 938.86v0.00137l-2.3e-4 0.0017-0.0032-0.5786 40.188 535.82c0.17103 2.2823-1.5406 4.2717-3.8231 4.4426-2.2827 0.1708-4.272-1.5404-4.443-3.823v0.0014l-40.187-535.82c-0.01414-0.1919-0.0155-0.38452-0.0028-0.57676v0.0013-0.0028c0.14736-2.2843 2.1184-4.0164 4.4025-3.8694 2.2844 0.1475 4.0167 2.1184 3.8696 4.4027z"/> <path d="m723.52 942.17v0.00134 3.7e-4l-0.03993-0.57507 74.584 532.12c0.31773 2.2667-1.2623 4.3623-3.5291 4.6799-2.2668 0.3173-4.362-1.2625-4.6798-3.5295v0.0014l-74.584-532.12c-0.02695-0.1908-0.04015-0.3831-0.04015-0.57533v0.00146-0.00317c0-2.2891 1.8556-4.1444 4.1443-4.1444 2.289 0 4.1446 1.8554 4.1446 4.1444z"/> </g> </g> </svg>