<svg width="179" height="17" viewBox="0 0 179 17" fill="none" xmlns="http://www.w3.org/2000/svg">
<path d="M7.2795 16.758C5.78843 16.758 4.4943 16.443 3.3971 15.813C2.31397 15.183 1.477 14.308 0.886199 13.188C0.295399 12.068 0 10.787 0 9.345C0 7.623 0.295399 6.188 0.886199 5.04C1.477 3.892 2.29287 3.031 3.3338 2.457C4.37473 1.869 5.5704 1.575 6.9208 1.575C7.24433 1.575 7.6171 1.603 8.0391 1.659C8.47517 1.715 8.95343 1.841 9.4739 2.037C9.61457 1.967 9.80447 1.904 10.0436 1.848C10.2827 1.778 10.5219 1.715 10.761 1.659C11.0001 1.603 11.19 1.575 11.3307 1.575C11.5136 2.023 11.6472 2.541 11.7316 3.129C11.816 3.703 11.8723 4.277 11.9004 4.851C11.9285 5.411 11.9426 5.901 11.9426 6.321H9.8959C9.75523 5.411 9.40357 4.718 8.8409 4.242C8.27823 3.752 7.6171 3.507 6.8575 3.507C6.29483 3.507 5.78843 3.661 5.3383 3.969C4.88817 4.277 4.52947 4.816 4.2622 5.586C4.009 6.342 3.8824 7.413 3.8824 8.799C3.8824 10.283 4.00197 11.459 4.2411 12.327C4.4943 13.181 4.853 13.797 5.3172 14.175C5.79547 14.539 6.3722 14.721 7.0474 14.721C7.807 14.721 8.36263 14.539 8.7143 14.175V11.781C8.7143 11.417 8.55253 11.158 8.229 11.004C7.90547 10.836 7.41313 10.752 6.752 10.752C6.752 10.514 6.80123 10.227 6.8997 9.891C6.99817 9.555 7.11773 9.303 7.2584 9.135H11.816C12.238 9.135 12.5545 9.233 12.7655 9.429C12.9765 9.611 13.1101 9.814 13.1664 10.038C13.2367 10.262 13.2719 10.43 13.2719 10.542C13.2719 10.682 13.2367 10.808 13.1664 10.92C12.9413 10.92 12.7233 10.934 12.5123 10.962C12.3154 10.976 12.1395 11.018 11.9848 11.088V13.503C11.9848 13.811 12.0059 14.028 12.0481 14.154C12.1044 14.28 12.1606 14.378 12.2169 14.448C12.2591 14.49 12.2943 14.539 12.3224 14.595C12.3505 14.637 12.3646 14.714 12.3646 14.826C12.3646 15.078 12.1395 15.358 11.6894 15.666C11.2393 15.96 10.6274 16.219 9.8537 16.443C9.0941 16.653 8.23603 16.758 7.2795 16.758ZM14.3547 16.464C14.1999 16.296 14.0804 16.121 13.996 15.939C13.9116 15.757 13.8694 15.554 13.8694 15.33C14.2773 15.33 14.5727 15.246 14.7556 15.078C14.9384 14.896 15.0299 14.595 15.0299 14.175V3.024C15.0299 2.702 14.9384 2.45 14.7556 2.268C14.5727 2.072 14.1859 1.974 13.5951 1.974V1.134C13.9467 0.937999 14.3547 0.77 14.8189 0.63C15.2971 0.476 15.7684 0.357 16.2326 0.273C16.6968 0.175 17.0836 0.126 17.3931 0.126C17.7166 0.126 17.9487 0.196 18.0894 0.336C18.2441 0.476 18.3215 0.721 18.3215 1.071V14.175C18.3215 14.609 18.4059 14.91 18.5747 15.078C18.7575 15.246 19.06 15.33 19.482 15.33C19.482 15.554 19.4327 15.757 19.3343 15.939C19.2499 16.121 19.1303 16.296 18.9756 16.464H14.3547ZM25.5282 16.737C24.5295 16.737 23.6433 16.527 22.8696 16.107C22.0959 15.673 21.4911 15.043 21.055 14.217C20.633 13.377 20.422 12.341 20.422 11.109C20.422 9.793 20.6471 8.687 21.0972 7.791C21.5473 6.895 22.1733 6.216 22.9751 5.754C23.7769 5.292 24.6983 5.061 25.7392 5.061C26.752 5.061 27.6382 5.278 28.3978 5.712C29.1714 6.146 29.7693 6.79 30.1913 7.644C30.6274 8.484 30.8454 9.527 30.8454 10.773C30.8454 12.075 30.6203 13.174 30.1702 14.07C29.7201 14.952 29.0941 15.617 28.2923 16.065C27.4905 16.513 26.5691 16.737 25.5282 16.737ZM25.697 15.225C25.9924 15.225 26.2456 15.12 26.4566 14.91C26.6817 14.7 26.8505 14.315 26.963 13.755C27.0896 13.181 27.1529 12.355 27.1529 11.277C27.1529 9.961 27.0896 8.967 26.963 8.295C26.8364 7.609 26.6535 7.147 26.4144 6.909C26.1753 6.671 25.8939 6.552 25.5704 6.552C25.275 6.552 25.0148 6.657 24.7897 6.867C24.5646 7.077 24.3888 7.469 24.2622 8.043C24.1497 8.617 24.0934 9.45 24.0934 10.542C24.0934 11.844 24.1567 12.831 24.2833 13.503C24.424 14.175 24.6139 14.63 24.853 14.868C25.0921 15.106 25.3735 15.225 25.697 15.225ZM36.8392 16.695C36.4313 16.695 35.96 16.667 35.4255 16.611C34.891 16.555 34.3705 16.478 33.8641 16.38C33.3577 16.268 32.9357 16.128 32.5981 15.96V2.898C32.5981 2.576 32.4996 2.324 32.3027 2.142C32.1058 1.96 31.7752 1.869 31.311 1.869V1.197C31.6345 0.973 32.0214 0.777 32.4715 0.609C32.9216 0.427 33.3718 0.28 33.8219 0.168C34.2861 0.0560003 34.6659 0 34.9613 0C35.2989 0 35.538 0.0769999 35.6787 0.231C35.8194 0.371 35.8897 0.616 35.8897 0.966V3.948L35.8264 5.943C36.1077 5.649 36.4453 5.439 36.8392 5.313C37.2331 5.187 37.6691 5.124 38.1474 5.124C38.9211 5.124 39.6455 5.32 40.3207 5.712C40.9959 6.104 41.5445 6.699 41.9665 7.497C42.3885 8.281 42.5995 9.289 42.5995 10.521C42.5995 11.865 42.3393 12.999 41.8188 13.923C41.2983 14.833 40.602 15.526 39.7299 16.002C38.8578 16.464 37.8942 16.695 36.8392 16.695ZM36.9025 15.162C37.2823 15.162 37.6269 15.043 37.9364 14.805C38.2599 14.553 38.5131 14.14 38.696 13.566C38.8789 12.992 38.9703 12.215 38.9703 11.235C38.9703 9.695 38.7523 8.589 38.3162 7.917C37.8801 7.245 37.3386 6.909 36.6915 6.909C36.382 6.909 36.1148 6.986 35.8897 7.14V14.763C36.157 15.029 36.4946 15.162 36.9025 15.162ZM47.2063 16.611C46.1513 16.611 45.2933 16.324 44.6321 15.75C43.9851 15.162 43.6615 14.413 43.6615 13.503C43.6615 12.593 43.9569 11.858 44.5477 11.298C45.1526 10.738 46.081 10.458 47.3329 10.458C47.7409 10.458 48.1699 10.5 48.62 10.584C49.0702 10.654 49.4359 10.766 49.7172 10.92V8.127C49.7172 7.539 49.5625 7.133 49.253 6.909C48.9576 6.671 48.5919 6.552 48.1558 6.552C47.6916 6.552 47.3118 6.664 47.0164 6.888C47.2978 6.986 47.5017 7.14 47.6283 7.35C47.7549 7.546 47.8182 7.763 47.8182 8.001C47.8182 8.463 47.6494 8.834 47.3118 9.114C46.9883 9.38 46.5874 9.513 46.1091 9.513C45.5746 9.513 45.1456 9.359 44.822 9.051C44.4985 8.729 44.3367 8.33 44.3367 7.854C44.3367 7.378 44.4985 6.93 44.822 6.51C45.1456 6.076 45.6449 5.719 46.3201 5.439C47.0094 5.159 47.8956 5.019 48.9787 5.019C51.8061 5.019 53.2198 6.132 53.2198 8.358V13.923C53.2198 14.595 53.5434 15.001 54.1904 15.141V15.813C54.0076 16.079 53.6981 16.282 53.262 16.422C52.826 16.548 52.404 16.611 51.996 16.611C51.0395 16.611 50.3643 16.282 49.9704 15.624C49.6891 15.876 49.3163 16.107 48.8521 16.317C48.3879 16.513 47.8393 16.611 47.2063 16.611ZM48.5778 14.91C48.7748 14.91 48.9787 14.882 49.1897 14.826C49.4007 14.756 49.5766 14.672 49.7172 14.574V12.537C49.5766 12.439 49.3937 12.355 49.1686 12.285C48.9576 12.215 48.7466 12.18 48.5356 12.18C48.1699 12.18 47.8534 12.299 47.5861 12.537C47.3189 12.761 47.1852 13.118 47.1852 13.608C47.1852 13.986 47.3118 14.301 47.565 14.553C47.8182 14.791 48.1558 14.91 48.5778 14.91ZM55.545 16.464C55.3903 16.296 55.2707 16.121 55.1863 15.939C55.1019 15.757 55.0597 15.554 55.0597 15.33C55.4677 15.33 55.7631 15.246 55.9459 15.078C56.1288 14.896 56.2202 14.595 56.2202 14.175V3.024C56.2202 2.702 56.1288 2.45 55.9459 2.268C55.7631 2.072 55.3762 1.974 54.7854 1.974V1.134C55.1371 0.937999 55.545 0.77 56.0092 0.63C56.4875 0.476 56.9587 0.357 57.4229 0.273C57.8871 0.175 58.274 0.126 58.5834 0.126C58.907 0.126 59.1391 0.196 59.2797 0.336C59.4345 0.476 59.5118 0.721 59.5118 1.071V14.175C59.5118 14.609 59.5962 14.91 59.765 15.078C59.9479 15.246 60.2503 15.33 60.6723 15.33C60.6723 15.554 60.6231 15.757 60.5246 15.939C60.4402 16.121 60.3207 16.296 60.166 16.464H55.545ZM73.1314 16.611C72.2311 16.611 71.5418 16.464 71.0636 16.17C70.5853 15.862 70.2336 15.456 70.0086 14.952C69.7835 14.448 69.5866 13.895 69.4178 13.293C69.3193 12.887 69.1927 12.467 69.038 12.033C68.8973 11.599 68.7285 11.214 68.5316 10.878C68.3346 10.542 68.0955 10.325 67.8142 10.227H66.4216V14.07C66.4216 14.462 66.5622 14.742 66.8436 14.91C67.1249 15.064 67.4695 15.141 67.8775 15.141C67.8775 15.645 67.7227 16.086 67.4133 16.464H62.1172C61.7936 16.072 61.6319 15.631 61.6319 15.141C62.1101 15.141 62.4548 15.064 62.6658 14.91C62.8908 14.742 63.0034 14.462 63.0034 14.07V4.2C63.0034 3.808 62.8908 3.535 62.6658 3.381C62.4407 3.213 62.089 3.129 61.6108 3.129C61.6108 2.891 61.6459 2.653 61.7163 2.415C61.7866 2.177 61.8921 1.974 62.0328 1.806C62.6376 1.806 63.2003 1.799 63.7208 1.785C64.2412 1.757 64.7195 1.736 65.1556 1.722C65.5354 1.694 65.9503 1.673 66.4005 1.659C66.8647 1.645 67.3148 1.638 67.7509 1.638C69.2138 1.638 70.3743 1.806 71.2324 2.142C72.1045 2.478 72.7305 2.947 73.1103 3.549C73.4901 4.151 73.68 4.865 73.68 5.691C73.68 7.735 72.5476 8.988 70.2829 9.45C70.9018 9.632 71.4996 10.066 72.0764 10.752C72.6672 11.438 73.1103 12.264 73.4057 13.23C73.5604 13.748 73.7573 14.14 73.9965 14.406C74.2497 14.672 74.5732 14.833 74.9671 14.889V15.939C74.7842 16.205 74.524 16.38 74.1864 16.464C73.8488 16.562 73.4971 16.611 73.1314 16.611ZM67.35 8.778C68.208 8.778 68.8692 8.512 69.3334 7.98C69.8116 7.448 70.0508 6.755 70.0508 5.901C70.0508 5.033 69.8468 4.375 69.4389 3.927C69.0309 3.465 68.3698 3.234 67.4555 3.234C67.3148 3.234 67.1319 3.241 66.9069 3.255C66.6959 3.269 66.5341 3.29 66.4216 3.318V8.736C66.52 8.75 66.6748 8.764 66.8858 8.778C67.0968 8.778 67.2515 8.778 67.35 8.778ZM80.4845 16.653C78.9091 16.653 77.6501 16.156 76.7076 15.162C75.7792 14.168 75.315 12.782 75.315 11.004C75.315 9.786 75.5471 8.736 76.0113 7.854C76.4755 6.958 77.1015 6.272 77.8892 5.796C78.691 5.32 79.5983 5.082 80.6111 5.082C81.8771 5.082 82.8899 5.453 83.6495 6.195C84.4232 6.923 84.81 7.952 84.81 9.282C84.81 9.814 84.7186 10.283 84.5357 10.689C84.3669 11.081 84.0082 11.277 83.4596 11.277H78.902C78.9442 12.383 79.1974 13.167 79.6616 13.629C80.1399 14.091 80.7589 14.322 81.5184 14.322C81.9967 14.322 82.4398 14.252 82.8477 14.112C83.2557 13.958 83.6355 13.748 83.9871 13.482C84.1137 13.594 84.2122 13.769 84.2825 14.007C84.3669 14.231 84.4091 14.42 84.4091 14.574C84.4091 14.798 84.2474 15.078 83.9238 15.414C83.6144 15.736 83.1642 16.023 82.5734 16.275C81.9967 16.527 81.3004 16.653 80.4845 16.653ZM78.902 9.681H81.0331C81.2723 9.681 81.42 9.59 81.4762 9.408C81.5466 9.226 81.5817 9.002 81.5817 8.736C81.5817 7.84 81.4692 7.252 81.2441 6.972C81.0331 6.678 80.7799 6.531 80.4845 6.531C80.2454 6.531 80.0063 6.622 79.7671 6.804C79.528 6.986 79.3311 7.308 79.1763 7.77C79.0216 8.218 78.9302 8.855 78.902 9.681ZM101.353 16.59C100.832 16.59 100.382 16.52 100.002 16.38C99.6367 16.226 99.4538 15.932 99.4538 15.498V8.505C99.4538 8.057 99.3272 7.714 99.074 7.476C98.8349 7.224 98.5113 7.098 98.1034 7.098C97.8783 7.098 97.6462 7.14 97.4071 7.224C97.182 7.308 96.9781 7.434 96.7952 7.602C96.8093 7.658 96.8163 7.714 96.8163 7.77C96.8163 7.812 96.8163 7.861 96.8163 7.917V14.196C96.8163 14.602 96.9007 14.896 97.0695 15.078C97.2383 15.246 97.5056 15.33 97.8713 15.33C97.8713 15.554 97.8221 15.764 97.7236 15.96C97.6392 16.142 97.5196 16.31 97.3649 16.464H92.8706C92.7299 16.31 92.6104 16.142 92.5119 15.96C92.4275 15.764 92.3853 15.554 92.3853 15.33C92.751 15.33 93.0042 15.246 93.1449 15.078C93.2996 14.896 93.377 14.602 93.377 14.196V8.505C93.377 8.057 93.2434 7.714 92.9761 7.476C92.7229 7.224 92.4134 7.098 92.0477 7.098C91.7804 7.098 91.5061 7.161 91.2248 7.287C90.9435 7.413 90.7043 7.595 90.5074 7.833V14.196C90.5074 14.602 90.5777 14.896 90.7184 15.078C90.8731 15.246 91.1263 15.33 91.478 15.33C91.478 15.764 91.3092 16.142 90.9716 16.464H86.3929C86.2382 16.31 86.1116 16.142 86.0131 15.96C85.9287 15.764 85.8865 15.554 85.8865 15.33C86.3085 15.33 86.6109 15.246 86.7938 15.078C86.9767 14.896 87.0681 14.602 87.0681 14.196V8.043C87.0681 7.679 86.9626 7.413 86.7516 7.245C86.5547 7.077 86.1889 6.993 85.6544 6.993V6.069C85.9779 5.873 86.3859 5.698 86.8782 5.544C87.3846 5.39 87.8699 5.271 88.3341 5.187C88.8124 5.089 89.1781 5.04 89.4313 5.04C89.7126 5.04 89.9447 5.131 90.1276 5.313C90.3245 5.481 90.4511 5.838 90.5074 6.384C90.8731 5.978 91.3303 5.656 91.8789 5.418C92.4416 5.166 93.0746 5.04 93.7779 5.04C95.1846 5.04 96.0989 5.509 96.5209 6.447C96.8866 5.999 97.3579 5.656 97.9346 5.418C98.5254 5.166 99.1795 5.04 99.8969 5.04C100.91 5.04 101.662 5.285 102.155 5.775C102.661 6.265 102.914 6.979 102.914 7.917V14.196C102.914 14.518 103.006 14.763 103.188 14.931C103.371 15.099 103.625 15.218 103.948 15.288V15.897C103.695 16.121 103.364 16.296 102.956 16.422C102.548 16.534 102.014 16.59 101.353 16.59ZM110.072 16.737C109.074 16.737 108.187 16.527 107.414 16.107C106.64 15.673 106.035 15.043 105.599 14.217C105.177 13.377 104.966 12.341 104.966 11.109C104.966 9.793 105.191 8.687 105.641 7.791C106.092 6.895 106.717 6.216 107.519 5.754C108.321 5.292 109.242 5.061 110.283 5.061C111.296 5.061 112.182 5.278 112.942 5.712C113.716 6.146 114.313 6.79 114.735 7.644C115.172 8.484 115.39 9.527 115.39 10.773C115.39 12.075 115.164 13.174 114.714 14.07C114.264 14.952 113.638 15.617 112.836 16.065C112.035 16.513 111.113 16.737 110.072 16.737ZM110.241 15.225C110.537 15.225 110.79 15.12 111.001 14.91C111.226 14.7 111.395 14.315 111.507 13.755C111.634 13.181 111.697 12.355 111.697 11.277C111.697 9.961 111.634 8.967 111.507 8.295C111.381 7.609 111.198 7.147 110.959 6.909C110.719 6.671 110.438 6.552 110.115 6.552C109.819 6.552 109.559 6.657 109.334 6.867C109.109 7.077 108.933 7.469 108.806 8.043C108.694 8.617 108.638 9.45 108.638 10.542C108.638 11.844 108.701 12.831 108.827 13.503C108.968 14.175 109.158 14.63 109.397 14.868C109.636 15.106 109.918 15.225 110.241 15.225ZM120.807 16.611C120.216 16.611 119.675 16.506 119.182 16.296C118.69 16.072 118.289 15.694 117.98 15.162C117.684 14.63 117.537 13.902 117.537 12.978V7.203H116.207V5.922C116.587 5.866 116.946 5.628 117.283 5.208C117.621 4.788 117.909 4.27 118.149 3.654C118.402 3.038 118.564 2.422 118.634 1.806C118.887 1.764 119.119 1.743 119.33 1.743C119.893 1.743 120.28 1.904 120.491 2.226C120.716 2.548 120.828 2.849 120.828 3.129V5.334H123.276C123.276 5.67 123.255 6.006 123.213 6.342C123.184 6.664 123.093 6.951 122.938 7.203H120.87V13.125C120.87 13.573 120.962 13.874 121.145 14.028C121.328 14.168 121.56 14.238 121.841 14.238C122.122 14.238 122.404 14.168 122.685 14.028C122.98 13.874 123.213 13.699 123.381 13.503C123.536 13.629 123.642 13.818 123.698 14.07C123.754 14.308 123.782 14.49 123.782 14.616C123.782 14.924 123.677 15.232 123.466 15.54C123.255 15.848 122.924 16.107 122.474 16.317C122.038 16.513 121.482 16.611 120.807 16.611ZM129.422 16.653C127.847 16.653 126.588 16.156 125.646 15.162C124.717 14.168 124.253 12.782 124.253 11.004C124.253 9.786 124.485 8.736 124.949 7.854C125.413 6.958 126.039 6.272 126.827 5.796C127.629 5.32 128.536 5.082 129.549 5.082C130.815 5.082 131.828 5.453 132.587 6.195C133.361 6.923 133.748 7.952 133.748 9.282C133.748 9.814 133.657 10.283 133.474 10.689C133.305 11.081 132.946 11.277 132.398 11.277H127.84C127.882 12.383 128.135 13.167 128.6 13.629C129.078 14.091 129.697 14.322 130.456 14.322C130.935 14.322 131.378 14.252 131.786 14.112C132.194 13.958 132.573 13.748 132.925 13.482C133.052 13.594 133.15 13.769 133.22 14.007C133.305 14.231 133.347 14.42 133.347 14.574C133.347 14.798 133.185 15.078 132.862 15.414C132.552 15.736 132.102 16.023 131.511 16.275C130.935 16.527 130.238 16.653 129.422 16.653ZM127.84 9.681H129.971C130.21 9.681 130.358 9.59 130.414 9.408C130.484 9.226 130.52 9.002 130.52 8.736C130.52 7.84 130.407 7.252 130.182 6.972C129.971 6.678 129.718 6.531 129.422 6.531C129.183 6.531 128.944 6.622 128.705 6.804C128.466 6.986 128.269 7.308 128.114 7.77C127.96 8.218 127.868 8.855 127.84 9.681ZM136.054 16.737C135.829 16.485 135.583 16.163 135.315 15.771C135.048 15.365 134.823 14.861 134.64 14.259C134.457 13.643 134.366 12.908 134.366 12.054C134.366 11.774 134.373 11.543 134.387 11.361C134.415 11.165 134.443 10.99 134.471 10.836H137.679C137.622 11.06 137.58 11.284 137.552 11.508C137.524 11.718 137.51 11.942 137.51 12.18C137.51 12.95 137.657 13.594 137.953 14.112C138.248 14.63 138.741 14.889 139.43 14.889C139.683 14.889 139.936 14.833 140.189 14.721C140.443 14.609 140.647 14.406 140.801 14.112C140.97 13.818 141.055 13.412 141.055 12.894V4.62C141.055 4.116 140.921 3.745 140.654 3.507C140.386 3.269 139.873 3.15 139.113 3.15C139.113 2.632 139.275 2.191 139.599 1.827H145.38C145.535 1.995 145.654 2.198 145.739 2.436C145.823 2.674 145.865 2.912 145.865 3.15C145.387 3.15 145.035 3.234 144.81 3.402C144.585 3.556 144.473 3.829 144.473 4.221V11.676C144.473 12.656 144.332 13.475 144.051 14.133C143.783 14.777 143.411 15.295 142.932 15.687C142.468 16.065 141.934 16.331 141.329 16.485C140.724 16.653 140.091 16.737 139.43 16.737C139.205 16.737 138.93 16.716 138.607 16.674C138.297 16.632 137.988 16.576 137.679 16.506C137.383 16.436 137.144 16.352 136.961 16.254L136.054 16.737ZM151.345 16.737C150.346 16.737 149.46 16.527 148.687 16.107C147.913 15.673 147.308 15.043 146.872 14.217C146.45 13.377 146.239 12.341 146.239 11.109C146.239 9.793 146.464 8.687 146.914 7.791C147.364 6.895 147.99 6.216 148.792 5.754C149.594 5.292 150.515 5.061 151.556 5.061C152.569 5.061 153.455 5.278 154.215 5.712C154.988 6.146 155.586 6.79 156.008 7.644C156.444 8.484 156.662 9.527 156.662 10.773C156.662 12.075 156.437 13.174 155.987 14.07C155.537 14.952 154.911 15.617 154.109 16.065C153.307 16.513 152.386 16.737 151.345 16.737ZM151.514 15.225C151.809 15.225 152.063 15.12 152.274 14.91C152.499 14.7 152.667 14.315 152.78 13.755C152.907 13.181 152.97 12.355 152.97 11.277C152.97 9.961 152.907 8.967 152.78 8.295C152.653 7.609 152.471 7.147 152.231 6.909C151.992 6.671 151.711 6.552 151.387 6.552C151.092 6.552 150.832 6.657 150.607 6.867C150.382 7.077 150.206 7.469 150.079 8.043C149.967 8.617 149.91 9.45 149.91 10.542C149.91 11.844 149.974 12.831 150.1 13.503C150.241 14.175 150.431 14.63 150.67 14.868C150.909 15.106 151.19 15.225 151.514 15.225ZM162.656 16.695C162.248 16.695 161.777 16.667 161.243 16.611C160.708 16.555 160.187 16.478 159.681 16.38C159.175 16.268 158.753 16.128 158.415 15.96V2.898C158.415 2.576 158.316 2.324 158.12 2.142C157.923 1.96 157.592 1.869 157.128 1.869V1.197C157.451 0.973 157.838 0.777 158.288 0.609C158.738 0.427 159.189 0.28 159.639 0.168C160.103 0.0560003 160.483 0 160.778 0C161.116 0 161.355 0.0769999 161.496 0.231C161.637 0.371 161.707 0.616 161.707 0.966V3.948L161.644 5.943C161.925 5.649 162.263 5.439 162.656 5.313C163.05 5.187 163.486 5.124 163.965 5.124C164.738 5.124 165.463 5.32 166.138 5.712C166.813 6.104 167.362 6.699 167.784 7.497C168.206 8.281 168.417 9.289 168.417 10.521C168.417 11.865 168.156 12.999 167.636 13.923C167.116 14.833 166.419 15.526 165.547 16.002C164.675 16.464 163.711 16.695 162.656 16.695ZM162.72 15.162C163.099 15.162 163.444 15.043 163.754 14.805C164.077 14.553 164.33 14.14 164.513 13.566C164.696 12.992 164.787 12.215 164.787 11.235C164.787 9.695 164.569 8.589 164.133 7.917C163.697 7.245 163.156 6.909 162.509 6.909C162.199 6.909 161.932 6.986 161.707 7.14V14.763C161.974 15.029 162.312 15.162 162.72 15.162ZM173.95 16.674C173.444 16.674 172.93 16.618 172.41 16.506C171.903 16.394 171.432 16.233 170.996 16.023C170.574 15.813 170.23 15.554 169.962 15.246C169.695 14.924 169.561 14.56 169.561 14.154C169.561 13.664 169.702 13.272 169.983 12.978C170.265 12.67 170.623 12.516 171.059 12.516C171.453 12.516 171.784 12.642 172.051 12.894C172.332 13.146 172.473 13.475 172.473 13.881C172.473 14.063 172.445 14.224 172.389 14.364C172.332 14.49 172.248 14.63 172.136 14.784C172.262 14.91 172.487 15.001 172.811 15.057C173.134 15.113 173.451 15.141 173.76 15.141C174.253 15.141 174.632 15.05 174.9 14.868C175.167 14.686 175.301 14.462 175.301 14.196C175.301 13.776 175.075 13.419 174.625 13.125C174.175 12.817 173.662 12.509 173.085 12.201C172.565 11.921 172.044 11.627 171.524 11.319C171.017 10.997 170.588 10.598 170.237 10.122C169.899 9.646 169.73 9.044 169.73 8.316C169.73 7.392 170.117 6.629 170.891 6.027C171.664 5.425 172.762 5.124 174.182 5.124C175.167 5.124 175.955 5.25 176.545 5.502C177.136 5.74 177.565 6.048 177.833 6.426C178.1 6.79 178.233 7.175 178.233 7.581C178.233 8.015 178.093 8.365 177.811 8.631C177.544 8.883 177.214 9.009 176.82 9.009C176.468 9.009 176.159 8.904 175.891 8.694C175.624 8.47 175.49 8.183 175.49 7.833C175.49 7.665 175.519 7.483 175.575 7.287C175.631 7.091 175.708 6.93 175.807 6.804C175.652 6.678 175.469 6.594 175.258 6.552C175.061 6.496 174.822 6.468 174.541 6.468C174.077 6.468 173.718 6.58 173.465 6.804C173.226 7.014 173.106 7.273 173.106 7.581C173.106 8.057 173.331 8.449 173.781 8.757C174.246 9.065 174.759 9.366 175.322 9.66C175.842 9.926 176.349 10.213 176.841 10.521C177.347 10.829 177.769 11.214 178.107 11.676C178.444 12.138 178.613 12.733 178.613 13.461C178.613 14.245 178.388 14.875 177.938 15.351C177.488 15.813 176.904 16.149 176.187 16.359C175.483 16.569 174.738 16.674 173.95 16.674Z" fill="#1BA8F0"/>
</svg>
